<svg width="40" height="40" viewBox="0 0 40 40" fill="none" xmlns="http://www.w3.org/2000/svg">
<rect width="40" height="40" rx="10" fill="#C4C4C4"/>
<rect width="40" height="40" rx="10" fill="#0038FF"/>
<path d="M17.481 21.247C17.3715 21.847 16.9375 24.644 16.809 25.4345C16.7995 25.491 16.7775 25.5125 16.715 25.5125H14.384C14.3293 25.5129 14.2751 25.5014 14.2253 25.4789C14.1754 25.4564 14.131 25.4234 14.0951 25.3821C14.0592 25.3408 14.0327 25.2923 14.0173 25.2398C14.0019 25.1873 13.998 25.1321 14.006 25.078L15.8375 13.456C15.8627 13.3084 15.9392 13.1745 16.0536 13.0779C16.1679 12.9813 16.3128 12.9282 16.4625 12.928C21.222 12.928 21.622 12.8125 22.8375 13.2845C24.7155 14.0125 24.8875 15.769 24.2125 17.669C23.5405 19.6255 21.947 20.466 19.8345 20.491C18.4785 20.513 17.6625 20.272 17.4815 21.247H17.481ZM25.1595 16.75C25.103 16.7095 25.0815 16.6935 25.0655 16.7905C24.9998 17.1468 24.9079 17.4978 24.7905 17.8405C23.5435 21.397 20.0875 21.0875 18.4 21.0875C18.2095 21.0875 18.0845 21.1905 18.0595 21.381C17.3535 25.7685 17.2125 26.684 17.2125 26.684C17.181 26.906 17.322 27.087 17.5435 27.087H19.528C19.797 27.087 20.0185 26.89 20.072 26.6215C20.094 26.453 20.0375 26.812 20.522 23.7685C20.666 23.081 20.969 23.153 21.4375 23.153C23.6565 23.153 25.3875 22.253 25.903 19.6435C26.106 18.556 26.047 17.412 25.1595 16.7495V16.75Z" fill="white"/>
</svg>
