<svg width="52" height="20" viewBox="0 0 52 20" fill="none" xmlns="http://www.w3.org/2000/svg">
<rect width="52" height="20" rx="10" fill="#FA4A0C"/>
<path d="M28.2554 15.127C28.7314 15.127 29.0615 14.7969 29.0615 14.3018V6.62744C29.0615 6.0625 28.7124 5.71338 28.1348 5.71338C27.792 5.71338 27.5381 5.77051 27.1318 6.05615L25.2593 7.37012C24.9863 7.56055 24.8848 7.75098 24.8848 8.00488C24.8848 8.3667 25.1323 8.61426 25.4751 8.61426C25.6528 8.61426 25.7798 8.56982 25.9385 8.45557L27.4175 7.42725H27.4492V14.3018C27.4492 14.7969 27.7793 15.127 28.2554 15.127Z" fill="white"/>
<path d="M10.8374 11.521H14.1479C14.6533 11.521 15.0195 11.2134 15.0195 10.708C15.0195 10.2026 14.6533 9.89502 14.1479 9.89502H10.8374C10.3394 9.89502 9.96582 10.2026 9.96582 10.708C9.96582 11.2134 10.3394 11.521 10.8374 11.521Z" fill="#F4F4F7"/>
<path d="M41.5 13.8291C41.8369 13.8291 42.0469 13.5996 42.0469 13.248V11.7344H43.4775C43.8242 11.7344 44.0488 11.5244 44.0488 11.1924C44.0488 10.8604 43.8242 10.6504 43.4824 10.6504H42.0469V9.13184C42.0469 8.78027 41.8369 8.55078 41.5 8.55078C41.1582 8.55078 40.9482 8.78027 40.9482 9.13184V10.6504H39.5127C39.166 10.6504 38.9414 10.8604 38.9414 11.1924C38.9414 11.5244 39.166 11.7344 39.5127 11.7344H40.9482V13.2432C40.9482 13.5996 41.1582 13.8291 41.5 13.8291Z" fill="#F4F4F7"/>
</svg>
