<svg width="25" height="25" viewBox="0 0 25 25" fill="none" xmlns="http://www.w3.org/2000/svg">
<path d="M13.5959 0.553917C13.3053 0.263336 12.9111 0.100098 12.5001 0.100098C12.0891 0.100098 11.6949 0.263336 11.4042 0.553917L0.554244 11.4039C0.271899 11.6962 0.115668 12.0878 0.119199 12.4942C0.122731 12.9006 0.285743 13.2894 0.573125 13.5767C0.860508 13.8641 1.24927 14.0271 1.65567 14.0307C2.06208 14.0342 2.45361 13.878 2.74594 13.5956L3.20009 13.1415V23.3498C3.20009 23.7609 3.3634 24.1551 3.65408 24.4458C3.94476 24.7365 4.33901 24.8998 4.75009 24.8998H7.85009C8.26118 24.8998 8.65543 24.7365 8.94611 24.4458C9.23679 24.1551 9.40009 23.7609 9.40009 23.3498V20.2498C9.40009 19.8387 9.5634 19.4444 9.85408 19.1538C10.1448 18.8631 10.539 18.6998 10.9501 18.6998H14.0501C14.4612 18.6998 14.8554 18.8631 15.1461 19.1538C15.4368 19.4444 15.6001 19.8387 15.6001 20.2498V23.3498C15.6001 23.7609 15.7634 24.1551 16.0541 24.4458C16.3448 24.7365 16.739 24.8998 17.1501 24.8998H20.2501C20.6612 24.8998 21.0554 24.7365 21.3461 24.4458C21.6368 24.1551 21.8001 23.7609 21.8001 23.3498V13.1415L22.2542 13.5956C22.5466 13.878 22.9381 14.0342 23.3445 14.0307C23.7509 14.0271 24.1397 13.8641 24.4271 13.5767C24.7144 13.2894 24.8775 12.9006 24.881 12.4942C24.8845 12.0878 24.7283 11.6962 24.4459 11.4039L13.5959 0.553917Z" fill="#FA4A0C"/>
</svg>
