<svg width="26" height="23" viewBox="0 0 26 23" fill="none" xmlns="http://www.w3.org/2000/svg">
<path d="M14.7083 0.625C11.824 0.625 9.05792 1.77076 7.01847 3.81021C4.97901 5.84967 3.83325 8.61577 3.83325 11.5H0.208252L4.90867 16.2004L4.99325 16.3696L9.87492 11.5H6.24992C6.24992 6.82375 10.032 3.04167 14.7083 3.04167C19.3845 3.04167 23.1666 6.82375 23.1666 11.5C23.1666 16.1763 19.3845 19.9583 14.7083 19.9583C12.3762 19.9583 10.2616 19.0038 8.73909 17.4692L7.02325 19.185C8.03029 20.1976 9.22784 21.0008 10.5468 21.5483C11.8658 22.0958 13.2801 22.3768 14.7083 22.375C17.5925 22.375 20.3586 21.2292 22.398 19.1898C24.4375 17.1503 25.5833 14.3842 25.5833 11.5C25.5833 8.61577 24.4375 5.84967 22.398 3.81021C20.3586 1.77076 17.5925 0.625 14.7083 0.625ZM13.4999 6.66667V12.7083L18.6353 15.7533L19.5658 14.1946L15.3124 11.6692V6.66667H13.4999Z" fill="black"/>
</svg>
